<?xml version="1.0" encoding="UTF-8"?><svg id="a" xmlns="http://www.w3.org/2000/svg" width="315.31" height="121.09" viewBox="0 0 815.31 621.09"><defs><style>.b{stroke-width:0px; fill: #f0ffff;}</style></defs><path class="b" d="M368.28,119.08c-3.95,4.5-9.21,4.85-14.62,4.43-4.4-.34-8.64-1.55-12.81-2.96-2.57-.87-3.58.15-2.45,2.39,3.41,6.77,1.79,13.47.21,20.23-.27,1.16-.47,2.37-.48,3.55-.02,2.2,1.05,3.9,3.03,4.77,2.15.95,3.94-.11,5.32-1.69,2.48-2.83,4.03-6.25,5.77-9.54,2.65-5.01,6.51-8.62,12.97-10.99-2.48,2.77-4.49,4.57-5.84,6.89-1.83,3.15-2.45,6.21.37,9.13,2.74,2.85,5.69,1.77,8.36.08,6.42-4.07,12.1-9.14,17.97-13.94,6.4-5.23,13.15-9.67,22.01-8.55,1.69.21,3.4.66,4.99,1.29,6.9,2.73,11.01.71,12.83-6.43.19-.75.39-1.5.77-2.92,1.7,3.33,2.32,6.28,2.12,9.23-.27,4.06,2.01,5.16,5.33,5.25,4.16.12,8.2-.5,12.09-2.11,5.41-2.23,10.84-4.41,16.32-6.44,1.5-.56,2.47-1.39,3.24-2.71,5.83-10.04,14.96-14.3,26.18-14.93,6.64-.37,13.34.04,19.87-1.61,2.13-.54,4.31-1.02,5.97-2.81-7.48,1.93-15.37-2.72-22.75,1.83,1.62-3.68,3.33-7.05,6.84-9,1.05-.59,2.34-1.01,3.32.06.77.84.24,1.76-.41,2.49-1.34,1.48-.37,2.08.95,2.43,1.69.45,3.42.55,5.15.26,3.33-.56,5.69-3.11,5.33-5.91-.43-3.38-3.04-4.25-5.81-4.3-2.5-.05-5.02.52-7.53.79-1.27.13-2.57.71-4.14-.27,2.02-.92,3.97-1.56,5.63-2.63,2.88-1.87,2.74-4.03-.1-5.9-50.94-33.43-106.37-56.17-165.71-69.65-6.09-1.38-11.54-4.75-17.82-5.68-4.74-.7-9.45-1.52-14.25-1.79-4.65-.26-9.29-.64-14.49-1.01,19.98-1.45,39.02,1.06,57.88,5.63,56.62,13.72,109.08,37.42,159.38,66.3,5.17,2.97,10.45,5.12,16.49,5.41,5.67.28,9.88-1.92,12.57-6.79,2.12-3.84,3.8-7.91,5.86-11.79,2.05-3.87,4.72-7.13,9.42-7.88,1.7-.27,3.59-.19,3.77,1.82.16,1.75-1.76,1.56-3.03,1.75-5.85.86-10.94,6.65-11.95,14.2-.56,4.17-1.4,8.08-4.89,11.55,4.02.25,6.12,1.66,5.13,5.57-.13.51.45,1.72.72,1.73,3.54.09,3.22,5.21,6.97,5.18,1.24,0,.51,1.39.29,2.26-.36,1.41-2.32,3.12-.52,4.19,1.42.84,2.77-1.13,3.97-2.11,18.09-14.8,37.39-27.75,58.1-38.61,36.5-19.14,75.21-30.88,116.28-34.72,1.55-.14,3.13-.02,4.74.33-10.49,2.26-21.03,4.31-31.46,6.82-23.08,5.55-45.77,12.26-66.57,24.09-10.57,6.02-20.43,13.03-28.62,22.15-2.32,2.58-4.48,5.29-5.79,8.55-2.1,5.2-.46,8.77,4.86,10.63,3.17,1.11,6.55,1.06,10.12,1.71-2.51,2.24-5.01,4.18-7.15,6.45-4.56,4.82-4.16,7.42,1.43,10.81-1.3,2.15-5.06,3.92-3.13,6.55,1.33,1.81,4.72.08,7.08-.51,17.01-4.24,33.72-9.76,50.75-13.69,36.28-8.36,73.13-13,110.5-11.97,12.67.35,25.21,1.98,37.58,4.75.88.2,1.72.6,2.52,1.15-8.12-.53-16.2-.55-24.28-.52-26.19.11-52.12,2.27-77.41,9.67-16.14,4.72-31.34,11.15-43.54,23.26-3.23,3.21-6.14,6.66-8.54,10.52-4.51,7.25-3.67,12.64,2.7,18.35.67.6,1.34,1.21,2.35,2.13-2.76.6-5.09,1.03-7.38,1.6-4.86,1.21-9.29,3.3-12.91,6.83-6.42,6.26-4.65,14.19,3.84,17.25,2.1.76,4.31,1.22,6.85,1.92-3.72,1.34-7.25,2.14-10.33,4.05-5.13,3.17-6.81,7.14-5.01,12.81.56,1.78.28,2.65-1.29,3.49-1.16.62-2.23,1.47-3.2,2.36-3.71,3.38-3.85,6.53.08,9.71,2.1,1.7,2.49,3.15,1.83,5.66-1.18,4.5.55,8.15,4.38,10.66,2.41,1.58,5.02,2.85,7.55,4.26-3.75,4.75-3.95,6.91-.65,12.21,4.68,7.52,11.44,12.89,18.78,17.61.96.62,2.24.83,2.91,2.26-6.04-.88-11.4-3.07-16.43-6.12-6.15-3.72-12.24-7.53-18.3-11.39-4.72-3.01-9.81-4.46-15.43-4.63-12.54-.39-25.02.38-37.52,1.21-3.23.21-2.66,2.23-2.76,4.13-.85,16.3-6.95,29.93-20.4,39.75-7.62,5.56-16.18,9.19-25.29,11.46-2.13.53-3.53,1.39-4.57,3.32-4.16,7.73-8.44,15.4-12.69,23.08-2.07,3.74-1.84,7.43.43,10.95,1.6,2.48,3.43,2.92,5.13.02,1.47-2.51,2.9-5.05,4.47-7.79,2.65,2.35,2.15,5.37,1.61,8.07-.61,3.08.04,4.9,2.97,6.39,4.77,2.42,4.8,9.78.25,12.57-1.36.84-2.88,1.53-3.73,2.94-1.08,1.8-1.9,1.43-2.87-.04-.28-.42-1.05-1.06-1.15-.98-3.33,2.41-8.04-.69-11.02,2.72-1.7,1.94-3.69,3.26-6.11,4.23-.58-1.61.34-2.61.61-3.71,1.12-4.68-1.54-7.68-6.28-6.86-3.44.59-5,3.16-6.26,6.09-1.13,2.62.59,3.94,2.18,5.36,2.49,2.22,3.43,4.51.16,6.82-1.25.88-1.85,1.91-1.39,3.38.5,1.61,1.89,2.25,3.36,2.47,2.26.34,4.7-.28,4.9,3.51.08,1.57,2.84.46,4.26.93,1.91.64,5.46-1.98,5.54,2.22.08,4.24-3.55,2.27-5.41,2.32-11.18.25-22.38.19-33.57.22-4.36.01-4.72-.55-2.75-4.61,6.38-13.17,12.8-26.31,19.18-39.47.44-.91,1.27-1.72.88-3.43-4.43,5.04-9.25,9-15.59,10.76-.77.21-1.33,1.58-1.79,2.51-5.4,10.83-10.79,21.67-16.11,32.53-1.95,3.98-1.32,4.94,3.14,4.97,18.12.09,36.23.26,54.35.14,3.76-.02,5.28.86,4.95,4.84-.8,9.55-1.56,19.09-4.52,28.29-1.65,5.11-3.89,9.95-7.46,13.99-2.04,2.3-3.54,4.57-3.16,7.77.26,2.21-.86,3.27-3.03,3.04-3.03-.32-5.23.27-5.3,3.94-.02,1.17-1.07,1.71-1.98,2.32-1.43.97-2.79,2.05-4.1,3.18-.98.85-2.51,1.69-2.1,3.13.46,1.63,2.23,1,3.48,1.11,2.38.21,4.82.12,7.15.58,3.9.77,7.34.72,9.75-3.08.6-.94,1.81-1.7,2.65-.57,2.15,2.92,3.13.83,4.33-.79,1.99-2.67,4.03-5.3,6-7.98,1.3-1.77,2.62-1.86,4.31-.46,2.26,1.87,4.46,3.79,6.33,6.07,1.16,1.41,1.9,2.89,1.05,5-2.85-.98-4.41-3.58-6.65-5.27-1.38-1.04-2.49-1.95-4.01-.13-1.47,1.76-1.12,2.97.54,4.32,1.75,1.42,4.66,2.97,4.76,4.61.52,8.49,8.02,11.93,12.21,17.62,12.5,16.96,21.82,35.22,25.91,56.02.58,2.95.13,4.16-3.09,4.85-11.14,2.37-21.75,6.23-31.1,12.94-5.46,3.92-10.04,8.61-12.25,15.32,4.97-4.3,11.45-6.2,16.19-10.9,5.86-5.81,12.65-10.16,21.07-11.35,8.01-1.13,15.14,1.07,21.16,6.25,9.65,8.32,16.18,18.65,18.56,31.3.57,3.01.95,5.5,4.94,5.04,2.06-.23,2.01,1.23,1.52,2.68-.93,2.77-1.99,5.5-2.79,8.31-.47,1.67-1.63,1.47-2.8,1.47-31.04.04-62.07.04-93.11.15-2.57,0-2.82-1.09-2.54-3.13.52-3.82.85-7.67,1.39-11.49.34-2.42.05-3.36-2.84-2.54-9.79,2.78-18.64,7.15-25.77,14.52-1.71,1.76-3.4,2.53-5.9,2.52-25.04-.06-50.08-.03-75.13.07-2.31,0-3.94-.56-5.49-2.38-3.37-3.97-7.22-7.48-11.87-9.96-4.61-2.46-9.32-3.28-14-.23-1.38.9-2.78.8-4.22.71-15.28-.93-30.36-.25-44.81,5.51-.71.28-1.58.39-2.34.31-13.25-1.34-25.3,2.2-37.63,9.52,1.27-1.57,1.79-2.34,2.44-2.99,28.67-28.48,63.1-44.7,103.36-48.49.66-.06,1.33-.1,1.98-.23,6.62-1.26,11.21-.53,15.06,6.82,7.94,15.15,21.5,17.82,36.03,8.72,5.3-3.32,10.17-7.31,15.88-9.97,4.63-2.15,6.12-1.77,9.05,2.39.23.33.41.69.66,1,1.49,1.9,2.13,5.39,5.16,4.79,3.02-.6,5.16-3.24,6.6-6.02,1.51-2.93.26-5.23-3.03-5.78-17.98-3-35.97-5.98-53.96-8.92-5.49-.9-5.53-.88-4.1-6.28.72-2.7,1.54-5.37,2.2-8.09.52-2.17.97-3.99,3.96-3.97,2.36.01,2.14-2.6,2.34-4.05.58-4.4,2.71-6.08,7.01-4.97,2.22.57,3.06-.17,3.12-2.56.21-8.45,2.43-16.3,7.72-23.06,1.99-2.54.07-3.49-1.65-4.59-7.17-4.54-13.34-10.14-18.17-17.15-2.95-4.28-2.8-6.67.75-10.54,3.75-4.1,8.75-6.04,13.94-7.32,3.53-.87,4.92-2.59,5.23-6.27.89-10.66,5.73-19.53,13.42-26.89,2.31-2.21,4.55-4.5,6.92-6.63,1.55-1.4,1.04-2.4-.2-3.61-1.12-1.1-2.05-1.55-3.33-.21-8.26,8.68-17.57,16.87-19.62,29.4-1.11,6.8-4.06,10.4-10.44,12.92-7.68,3.03-13.21,8.97-15.4,17.26-.81,3.06-2.96,3.44-5.35,3.73-6.87.84-13.75,1.61-20.62,2.4-1.19.14-2.77.07-3.14,1.32-1.12,3.85-4.28,3.38-7.12,3.74-16.9,2.14-33.79,4.37-50.7,6.41-3.51.42-5.23,1.52-5.8,5.44-2.59,17.84-12.33,32.1-23.87,45.24-10.73,12.22-23.09,22.44-38.11,29.11-1.34.59-2.74,1.02-4.09,1.58-2,.83-2.68.31-2.96-1.95-1.07-8.7-5.55-15.88-10.75-22.77,1.23,9.93.87,19.76-.37,29.61-1.33,10.53-1.24,10.54-11.84,11.02-5.59.25-11.17.6-16.76.8-4.72.17-4.73.11-4.77,5.6-6.84-2.5-13.84-3.69-20.61-5.77-2.39-.73-2.57-3.16-2.75-5.33-.61-7.08-4.18-12.02-10.89-13.8-5.12-1.35-7.33-4.59-7.63-9.4-.23-3.7-1.78-4.6-5.34-4.05-7.95,1.22-15.65,3.26-22.93,6.62-5.88,2.72-11.81,3.25-18.24,2.75-19.84-1.55-39.65-1.9-58.86,4.82-12.96,4.53-23.56,12.23-31.66,23.29-1.4,1.91-2.82,2.64-5.2,2.78-7.89.46-13.34,5.43-18.61,10.83-.72-1.09.22-1.72.59-2.34,8.76-14.38,18.93-27.67,30.71-39.72,11.22-11.47,24.18-18.5,40.82-18.86,23.72-.51,46.45-7.35,69.37-12.69,5.31-1.24,10.55-2.76,15.83-4.13,3.97-1.04,7.67-2.23,11.03-5.07,3.69-3.12,8.79-3.71,13.58-3.9,7.79-.29,15.33-1.61,22.62-4.36,1.12-.42,2.25-.83,3.31-1.38,5.45-2.82,5.38-3.77,1.38-8.13-9-9.81-17.72-19.87-26.53-29.85-1.69-1.92-1.68-3.79.47-5.48,2.31-1.8,4.59-3.64,6.84-5.52,1.95-1.63,3.62-3.55,6.37-.89,1.41,1.36,3.01-.28,4.27-1.1,3.79-2.47,7.3-5.33,11.28-7.54,18.11-10.01,36.72-11.72,55.97-3.55.7.3,1.41.55,2.58.19-4.35-3.73-8.63-7.54-13.09-11.13-1.39-1.12-2.28.79-3.35,1.38-.97.53-1.93,1.28-2.72-.04-.74-1.23.56-1.55,1.22-2.08,4.83-3.88,5.34-3.84,10.24-.08,8.72,6.7,16.75,14.07,22.31,23.69,2.09,3.62,3.43,2.78,5.51.09,2.84-3.68,5.46-7.57,8.91-10.75,2.77-2.55,5.65-4.48,9.8-4.64,3.11-.12,6.03-1.91,7.59-5.07.23-.47.52-1,.94-1.26,5.33-3.31,4.98-8.34,4.58-13.68-.44-5.81-.79-11.78,2.65-17.03.77-1.18.22-1.98-.36-2.88-6.42-9.95-7.75-21.11-7.31-32.55.13-3.25-.98-4.85-3.65-6.18-7.84-3.89-16.28-5.46-25.48-6.59,4.2-4.43,9.7-7.86,7.69-14.89-3.09,6.05-8.39,9.86-13.45,13.89-1.04.83-2.08,1.68-2.99,2.64-5.17,5.44-3.51,12.81,3.6,15.36,5.98,2.15,12.08,1.39,18.1-.08,1.79-.44,3.54-1,5.76-1.64,0,3.28-1.49,5.54-3.32,7.62-4.83,5.5-11.09,9.06-17.29,12.72-9.84,5.81-20.29,10.64-29.18,17.99-1.13.93-2.42.91-3.75,1.05-18.78,2.04-37.71,2.63-56.4,5.56-2.88.45-5.77.98-8.48,2.18-3.45,1.53-5.79,3.89-5.49,7.92.16,2.14-.47,2.86-2.65,2.52-6.44-1-12.89-1.97-19.37-2.72-2.46-.29-3.42-1.13-3.35-3.71.19-6.65.16-13.32.1-19.97,0-1.74.58-3,1.72-4.25,7.79-8.58,15.54-17.18,23.26-25.83,1.41-1.58,2.62-2.82,4.23-.3,1.31,2.06,2.62,2.52,4.06.06,1.12-1.9,2.35-1.17,3.52.02,1.4,1.43,2.73,2.92,4.19,4.28,2.37,2.21,4.32,1.75,5.38-1.29.84-2.42,1.2-5.03.54-7.49-.99-3.68-1.36-7.15.19-10.81.92-2.17.07-4.54-2.64-3.82-5.98,1.57-10.98-1.04-16.28-2.76-1.97-.64-4.17-.6-7.32-1.01,5.78-4.36,7.65-11.88,15.63-11.84-.43-2.19-1.6-1.89-2.4-2.13-6.67-2.03-11.05-6.31-12.5-13.19-.73-3.47-2.13-3.57-4.45-1.41-4.61,4.29-8.51,9.17-11.9,14.46-.99,1.55-1.88,2.55-4.04,2.45-12.77-.6-25.55-1.12-38.33-1.42-3.95-.1-5.72-1.19-5.39-5.53.31-3.98.75-8.5-4.84-9.93-.92-.24-2.27-9.06-1.64-9.95.85-1.21,2.21-.72,3.32-.66,2.19.13,3.04-.75,3.3-2.91,2.07-16.56,5.32-32.83,12.15-48.19,1.71-3.85,1.68-7.42-.81-10.9-2.33-3.26-2.02-6.2.58-9.35,2.79-3.37,5.08-7.16,7.59-10.76.69-.98,1.53-1.94,1.53-3.19,0-3.04.26-5.72,4.51-5,.83.14,1.3-.82,1.43-1.65.15-.96.37-1.99,1.39-2.23,4.27-.99,4.97-4.59,6.26-7.96,4.95-12.91,14.32-22.02,25.7-29.37-2.3,3.99-5.23,7.55-7.15,11.74-1.91,4.17-3.45,8.42-2.58,13.09.69,3.68,2.19,7,6.1,8.22,4.07,1.28,8.12.74,11.17-2.31,2.5-2.5,4.8-4.55,8.62-4.82,2.7-.19,4.86-2.29,6.31-4.54,1.58-2.44,3.56-3.01,6.33-3.05,3.67-.06,7.82,1.64,10.53-3.17,1.08-1.92,4.52-.56,6.86-.87,3.67-.48,3.64,2.03,3.87,4.52.25,2.63,2.39,2.64,4.23,2.47,2.58-.24,4.04.44,4.07,3.29,0,.71.58,2.03.9,2.03,4.36-.02,3.46,3.57,4.12,5.96,1.3,4.7,3.68,7.95,8.34,10.4,3.08,1.62,5.79,2.36,9.03,2.45,2.24.06,3.7-.6,3.67-3.03-.03-2.97,1.48-4.21,4.24-3.67,4.16.8,6.39-1.26,8.02-4.73,1.64-3.49,3.61-6.82,5.24-10.31,1.29-2.75,3.17-3.85,6.26-3.84,17.58.07,35.17-.07,52.75-.02,2.8,0,4.88-.54,6.07-3.35,1.22-2.87,4.05-2.29,6.29-2.21,2.89.09,4.92-.39,5.39-3.66.3-2.08,1.69-2.4,3.53-1.95,1.13.28,2.31.33,3.6.5-.47-1.75-1.98-2.01-2.99-2.77-4.21-3.21-6.64-7.22-6.13-12.67.28-3.05-.72-5.77-2.05-8.41-.74-1.47-1.79-3.02-3.42-3.11-8.18-.46-15.7-6.75-24.58-1.99.5-3.43,1.57-5.63,3.79-7.13,2.49-1.69,1.42-2.52-.66-3.32-6.87-2.63-13.54-2.31-20.03,1.18-4.09,2.2-6.52,1.39-7.63-3.1-.67-2.71-1.6-5.24-2.7-7.76-.45-1.03-.85-2.21-2.08-2.06-4.14.52-2.8-1.88-2.03-3.78,1.23-3.02.94-6.5,2.94-9.28.42-.59.31-1.43-.42-1.68-3.08-1.07-2.13-3.53-2.1-5.7.06-4.22,1.09-8.45-.01-12.68-.06-.25-.03-.52-.05-.78,4.98.9,4.23-6.43,9.34-6.22,3.39.14,6.82-2.04,10.31-2.87,5.38-1.28,10.81-1.58,16.1.56,3.11,1.26,5.29-1.11,6.26-2.88,3.65-6.64,6.39-8.32,13.85-7.18,1.5.23,3.92,1.93,4.31-.36.3-1.74-2.67-1.67-4.24-1.98-4.19-.81-8.39-1.5-12.16-3.66-5.12-2.94-8.81-13.4-6.47-18.34,3.21.67,4.81-3.01,7.89-2.89,1.86.07,3.75-.22,5.54.39,5.38,1.82,10.97,2.87,15.79,6.37,5.24,3.8,11.47,3.84,17.67,2.71,2.74-.5,2.61-1.83.85-3.46-1.37-1.26-2.8-2.46-4.17-3.73-2.29-2.12-3.74-4.54-2.47-7.79,1.34-3.42,3.89-5.34,7.51-5.72,3.4-.35,6.6.44,9.64,1.97,2.47,1.25,4.86,3,8.26,1.05-3.53,3.06-1.18,3.45,1.44,3.72-2.02,1.91-3.69,1.27-5.32.35-2.4-1.36-5.01-1.72-7.7-1.74-1.89-.02-3.83,0-4.84,2.02-1.1,2.21.15,3.99,1.58,5.34,2.03,1.92,3.19,3.98,3.53,6.83.7,5.83-2.96,9.6-8.43,7.64-4.4-1.58-8.69-2.09-13.27-2.04-1.86.02-3.69-1.36-5.6-1.9-1.96-.55-4.28-.98-5.31,1.28-1.06,2.33.48,4.09,2.45,5.26,3.48,2.06,7.27,2.19,11.21,1.77,6.6-.69,10.27,1,12.47,5.52,1.02,2.1,1.64,4.24-.72,5.98,1.31-5.45-.42-8.56-5.73-9.91,2.16,3.52,3.17,7.27,3.41,11.53,1.03-.74,1.75-1.26,2.47-1.77-3,3.31-6,6.61-8.99,9.92-.45-1.35,1.75-1.83,1.15-3.44-3.13,1-6.15,1.89-9.09,2.97-1.12.41-3.17.6-2.77,2.15.38,1.46,2.31,1.42,3.79,1.32,2.72-.2,4.49-2.59,7.07-3.12v.05ZM565.41,176.94c-5.97,8.38-13.94,11.86-22.48,14.36-2.55.75-5.15,1.34-7.74,1.92-3.84.87-4.06,1.29-1.74,4.51,3.91,5.44,8.92,9.86,13.68,14.49,6.16,5.99,10.61,12.93,12.58,21.35,2.5,10.66,2.35,21.32.21,32.05-1.09,5.48-4.29,8.18-9.52,9.26-7.51,1.54-14.81.42-22.13-1.19-8.12-1.78-16.28-3.43-25.12-5.28.94.83,1.28,1.26,1.72,1.5,10.78,5.86,21.41,11.9,29.58,21.37.41.48,1.03.85,1.63,1.06,12.85,4.45,27.95-2,33.37-14.74,5.68-13.36,6.46-27.5,3.59-41.52-3.1-15.17-11.84-26.81-25.23-34.83-1.18-.71-3.04-1.07-2.95-2.87.09-1.94,2.06-1.84,3.33-2.31,3.77-1.4,7.38-3.09,10.4-5.77,3.72-3.31,7.16-6.83,6.8-13.36h.02ZM198.41,534.93c-.02-.34-.03-.69-.05-1.03-5.67.61-11.4.32-17.02,1.58-3,.68-6.1,1.41-8.43,3.44-5.84,5.1-12.92,7.52-20.2,8.98-27.51,5.51-54.86,11.94-82.86,14.78-4.7.48-9.5.95-13.74,3.43,14.38-.86,28.69-2.07,43.01-3.13,18.31-1.35,36.58-3.54,55-2.91,12.02.41,23.42,2.99,34.21,8.41,9.05,4.55,17.49,10.13,26.2,15.25,1.18.69,2.21,1.85,4.64,1.72-6.55-4.21-12.48-7.95-18.33-11.82-8.55-5.66-16.81-11.75-24.74-18.24-6.18-5.06-5.55-10.11,1.47-14.03,2.46-1.38,5.17-2.07,7.87-2.79,4.33-1.15,8.63-2.42,12.94-3.64h.03ZM417.76,178.84c3.46-4.56,7.36-7.85,12.25-9.81,2.95-1.18,5.33-3.13,6.8-5.9,3.72-7.02,9.71-9.1,17.09-7.96,4.27.66,7.52-.62,10.17-3.93,1.16-1.45,2.58-2.69,3.75-4.14,3.83-4.75,8.66-7.33,14.86-7.13,1.05.03,2.27.14,2.97-.81,3.16-4.27,7.88-3.74,12.32-4.11,4.61-.39,9.47.26,13.72-1.95,10.61-5.52,18.46-14.22,25.98-23.23.64-.77,1.45-1.85.27-2.77-.95-.75-2-.41-2.89.38-2.41,2.12-4.99,4.17-8.06,5.05-12.61,3.62-23.68,9.97-33.76,18.27-2.65,2.18-5.61,4.23-9.22,4.38-4.28.18-8,1.71-11.58,3.87-1.82,1.1-3.65,2.14-5.82,2.51-10.91,1.89-20.65,6.81-30.27,11.93-6.36,3.38-12.42,7.29-16.73,13.27-2.48,3.44-3.82,7.17-1.83,12.09h-.02ZM340.23,371.31c3-2.15,4.78-5.51,7.73-5.77,4.45-.38,7.3-2.71,10.19-5.55,2.99-2.93,6.31-4.09,10.49-2.09,3.8,1.82,7.81,1.57,11.54-.48,2.65-1.46,4.7-.99,6.74,1.18,1.79,1.91,3.53,3.95,6.45,4.4,10.13,1.58,14.13,5.51,16.27,15.55.52,2.45.66,5.04,1.96,7.28,4.23,7.31,3.93,14.67.34,22.1-.59,1.23-2.27,2.74-.67,3.84,1.72,1.18,2.33-1.13,3.13-2.09,10.6-12.93,5.32-31.56-2.45-39.18-3.52-3.45-6.91-7.03-10.36-10.54-19.87-20.24-39.74-40.49-59.66-60.68-.89-.91-1.94-3.26-3.18-2.06-1.62,1.58,1.11,2.43,1.82,3.66.39.67,1.07,1.18,1.62,1.75,14.6,15.34,29.2,30.67,43.79,46.02.73.77,1.39,1.62,2.37,2.78-22.81-4.76-46.63,4.92-48.11,19.88h0ZM404.36,402.18c.6-1.56.95-2.26,1.14-2.99,5.29-20.63-12.77-39.16-33.59-34.55-9.48,2.1-16.3,7.45-20.48,16.16-.54,1.13-1.46,2.34-.31,3.68,1.04,1.21,2.4,1.01,3.7.8,1.04-.17,2.1-.46,3.03-.93,3.31-1.64,6.73-1.69,10.08-.48,6.23,2.25,11.92,1.33,18.14-.9,8.87-3.18,14.85.17,16.47,8.28.66,3.32,1.12,6.69,1.82,10.93ZM337.24,584.9c6.01-.67,12.02-1.3,18.02-2.01,16.82-2,32.4-.06,45.97,11.67,7.4,6.39,17,6.96,26.53,5.9,1.22-.14,2.26-.44,2.98-1.65,5.17-8.63,12.87-13.99,22.34-16.94,1.53-.48,1.83-1.23,1.44-2.64-.39-1.4-1.31-1.47-2.47-1.24-3.03.62-5.88,1.69-8.44,3.43-2.97,2.02-5.86,4.15-8.83,6.15-11.12,7.49-20.63,7.18-31.06-1.29-3.81-3.09-7.32-6.58-10.76-10.08-1.74-1.78-3.51-2.44-5.98-2.31-7.71.42-15.4.96-22.99,2.38-9.24,1.73-18.32,4.01-26.73,8.63h-.02ZM496.86,195.23c-5.66-.23-9.56,2.47-10.75,7.41-.52,2.16-.41,4.47-.52,6.72-.47,9.53-3.19,17.68-12.58,22.28-5.2,2.55-8.19,7.06-9.37,12.7-.68,3.25-1.08,6.55-1.76,9.79-.4,1.91.49,2.62,2.12,3.08,3.84,1.07,7.69,2.1,11.46,3.36,2.45.82,2.7-.2,2.52-2.22-.35-3.72-.08-7.44.5-11.12.8-5.07,2.56-9.63,7.99-11.37,1.87-.6,1.62-1.78,1.58-3.07-.13-3.84.88-7.25,3.09-10.48,2.38-3.49,3.66-7.28,1.81-11.63-2.49-5.85-2.87-11.41,3.91-15.46h0ZM390,336.79c1.06-1,2.19-2.34,3.58-3.33,3.06-2.18,2.66-3.84.12-6.42-13.8-14.05-27.4-28.29-41.07-42.47-2.68-2.78-5.37-2.72-8.07.17-1.23,1.32-2.84,2.26-.73,4.46,14.72,15.39,29.31,30.89,43.96,46.35.51.54.91,1.35,2.22,1.24h0ZM277.52,487.79c-.12-3.01-1.04-5.1-2.54-6.73-10.51-11.44-23.34-17.75-39.06-15.51-13.72,1.96-25.46,8.94-36.76,16.63-2.29,1.56-1.35,2.56-.12,4,5.79,6.78,11.54,13.6,17.31,20.4,1.05,1.24,2.12,2.47,3.19,3.71-.43-3.44-2.07-6.13-3.96-8.65-2.64-3.51-5.45-6.89-8.15-10.35-2.9-3.72-2.71-6.48.69-9.74,2.15-2.07,4.8-3.31,7.54-4.38,5.25-2.04,10.73-3.26,16.3-3.67,16.82-1.24,33.52-1.78,45.56,14.29h0ZM646.13,121.8c-2.06,0-4.13-.12-6.18.02-7.78.55-15.2,2.63-22.21,5.97-3.36,1.6-6.62,2.26-10.36,1.67-5.53-.88-10.93-.16-15.62,3.23-3.15,2.28-6.56,3.29-10.43,3.3-5.14.02-10.01.98-14.15,4.45-2.42,2.02-5.31,2.86-8.57,2.4-1.96-.27-4-.19-5.87.68-.66.31-1.96.81-1.3,1.55,2.05,2.31,3.51,5.57,7.14,5.85,4.32.34,8.4-.19,11.68-3.59,3.23-3.35,7.32-4.8,11.96-4.33,4.46.45,8.04-1.08,11.08-4.27,3.24-3.41,7.26-4.79,11.93-4.34,3.26.31,6.27-.39,9.3-1.65,6.98-2.9,13.96-5.83,21.59-6.84,3.51-.46,6.95-1.59,10.03-4.12l-.02.02ZM465.51,493.93c-.91-.1-1.2-.21-1.41-.14-16.76,5.82-28.6,21.36-29.53,38.67-.13,2.43,1.05,3.71,3.35,4.16,3.66.72,7.35,1.29,10.95,2.22,3.43.89,3.68-.55,2.95-3.27-1.33-4.94-1.61-9.93-.75-15.02,1.74-10.36,7-18.8,14.45-26.62h-.01ZM211.16,294.02c-4.71,4.37-7.02,4.62-10.59,1.66-2.64-2.19-4.36-4.95-5-8.37-.62-3.28-.83-6.58-.88-9.91-.04-2.24-.09-2.24-1.56-4.71-.92,13.3-6.42,23.92-16.85,31.92-1.62,1.24-3.1,2.74-4.19,5.65,2.23-1.57,3.69-2.61,5.17-3.62,3.29-2.26,6.65-4.43,10.6-5.36,5.05-1.19,7.44.8,7.1,5.93-.3,4.45-2.02,8.49-3.94,12.45-.95,1.97-2.17,3.85-2.48,6.96,12.4-7.8,18.15-19.17,22.62-32.6h0ZM255.79,345.75c4.98-1.38,9.47-3.58,12.65-7.68,5.68-7.29,13.12-10.6,22.24-10.33,2.34.07,3.28-.64,3.26-3.15-.1-10.12.03-20.24,0-30.36,0-3.62-1.07-4.19-4.38-2.91-2.21.86-2.93,2.32-2.9,4.61.08,5.99-.05,11.98-.06,17.98,0,1.64.07,2.96-2.16,3.51-5.37,1.32-9.36,4.85-12.98,8.87-5.57,6.19-9.43,13.75-15.68,19.45h.01ZM483.04,157.76c-.94.99-.6,1.81-.57,2.55.32,6.69.53,13.35-3.75,19.14-.81,1.09-1.79,2.23-1.03,3.59.9,1.61,2.6.99,3.97.81,1.3-.16,2.58-.63,3.83-1.06,7.29-2.5,14.43-5.42,21.93-7.26,2.83-.7,5.67-1.52,8.64-.87,1.54.34,2.7,1.14,3.06,2.76.37,1.64-.31,2.95-1.67,3.74-1.48.86-3.12,1.43-4.67,2.17-.65.31-1.75.34-1.54,1.45.19.99,1.16.99,1.92,1,1.19.02,2.39-.08,3.58-.15,5.17-.29,9.95-3.02,15.29-2.43,2.13.24,1.42-1.36,1.17-2.45-1.62-7.26-7.9-11.65-15.35-10.83-3.19.35-6.35.81-9.36,1.9-5.05,1.83-10.33,2.4-15.6,3.13-2.73.37-4.04-.02-4.14-3.29-.15-5.15-1.96-9.85-5.73-13.89h.02ZM432.37,368.67c0-1.84-1.31-2.52-2.2-3.43-8.37-8.58-16.88-17.02-25.08-25.75-2.55-2.72-3.88-2.42-6.5-.06-3.2,2.88-3.08,4.87.08,7.34,1.04.81,1.84,1.92,2.76,2.88,8.06,8.51,16.09,17.03,24.21,25.48.7.73,1.59,3.07,2.94,1.14,1.65-2.36,2.63-5.19,3.8-7.61h0ZM511.71,163.59c4.89-4.47,10.4-5.46,16.14-6.16,3.92-.48,5.29.81,5.7,4.67.79,7.4,2.31,14.71,3.08,22.11.43,4.05,3.13,2.77,5.22,2.85,3.15.13,1.5-2.23,1.34-3.37-1.18-8.15-2.58-16.28-3.81-24.42-.24-1.6-.49-2.94-2.48-2.82-3.6.2-4.49-1.77-4.24-4.93.11-1.44-.22-2.91-.33-4.37-.08-1.06-.43-1.56-1.69-1.66-10.17-.8-18.36,6.64-18.92,18.11h-.01ZM326.24,262.83c4.17.09,5.86-.61,7-2.61,1.4-2.46.32-4.63-.93-6.7-2.94-4.9-8.94-7.25-15.23-6.14-4.75.83-8.46,3.02-10.39,7.62-.72,1.71-.69,3.45,1.79,3.12,3.55-.47,6.39,1,9.34,2.53,2.86,1.48,6,2.03,8.41,2.17h.01ZM215.05,242.16c-5.22.24-9.87,1.82-13.04,6.32-2.16,3.08-1.22,5.49,2.37,6.66,2.82.92,5.63.65,8.11-.69,4.93-2.66,9.8-2.97,14.82-.5,1.85.91,2.45-.03,2.48-1.67.03-2.27-1.07-4.07-2.69-5.55-3.39-3.1-7.47-4.41-12.05-4.58h0ZM407.34,250.16c-16.15-8.82-33.27-14.86-51.06-19.39,1.28,1.48,2.84,2.61,4.19,3.95,7.16,7.12,15.24,11.71,25.8,12.09,7.06.25,14.05,2.18,21.07,3.35ZM455.09,344.8c-8.71.99-16.36,4.45-22.52,10.6-2.42,2.42-3.56,1.77-5.5-.28-6.83-7.25-13.8-14.37-20.77-21.49-.63-.64-1.2-2.17-2.5-1.13-1.31,1.05-.49,2.07.4,3,9.22,9.56,18.46,19.11,27.6,28.74,1.63,1.71,2.46,1.23,3.62-.4,5.35-7.51,11.53-14.19,19.65-19.04h.02ZM663.59,134.59c-14.82,4.24-27.79,9.94-39.83,17.78,10.09-1.09,20.05-2.54,30.01-3.97,1.27-.18,2.18-.77,2.84-1.9,2.11-3.66,4.28-7.3,6.99-11.91h-.01ZM325.52,305.83c-7.85,3.79-14.25,2.47-21.01-2.61,2.88,9.94,6.36,18.29,10.19,27.61,3.7-8.55,6.99-16.16,10.82-24.99h0ZM343.63,343.2c-6.7-2.05-13.13-1.64-19.27,1.52-2.35,1.21-2.55,2.48-.09,3.92,5.53,3.26,7.43,7.93,5.63,14.22-.82,2.85-.64,5.86.1,8.83,2.21-4.22,4.54-8.21,7.56-11.74,1.55-1.81.96-3.21-.33-4.92-2.49-3.3-1.67-7.36,1.83-9.61,1.42-.91,3.05-1.49,4.58-2.22h-.01ZM153.23,338.57c-.98,9.18-4.57,11.62-13.3,12.12-5.7.32-11.44-.11-17.16-.13-1.23,0-3.08-.45-3.23,1.41-.17,2.13,1.77,1.97,3.17,2.02,7.71.26,15.43.62,23.14.61,3.83,0,7.7-.23,11.51-1,3.25-.66,3.79-2.57,2.79-5.25-1.38-3.65-3.77-6.64-6.92-9.77h0ZM460.67,369.97c.01-.18.02.49-.08,1.14-.7,4.72-1.92,5.49-6.53,4.27-1.27-.34-2.6-.68-3.89-.64-2.42.08-2.84,1.9-3.02,3.9-.2,2.2,1.31,2.23,2.79,2.42,1.97.26,3.93.53,5.89.87.98.17,1.87.26,2.36-.82,2.63-5.78,7.46-10.37,9.16-16.65.85-3.15,2.68-7.12.16-9.37-2.4-2.15-6.05.27-8.97,1.4-3.19,1.23-3.53,2.88-1.11,5.26,2.11,2.07,3.34,4.41,3.25,8.22h-.01ZM440.19,329.73c-1.45-2.59-2.8-5.13-4.27-7.6-.94-1.57-2.49-2.01-4.15-1.42-7.07,2.51-14.24,3.88-21.87,1.93,2.02,8.16,17.99,9.98,30.3,7.08h-.01ZM158.81,328.88c.33-.24.66-.48.98-.72-.3-3.6-1.87-6.76-3.77-9.78-3.63-5.77-8.53-10.45-13.21-15.33-2.27-2.36-3.29-1.56-4.57.76-2.35,4.29-4.3,6.56,2.13,9.06,3.79,1.47,6.97,4.35,9.93,7.22,2.93,2.84,5.68,5.86,8.51,8.8h0ZM456.94,233.17c-1.36-2.01-2.64-3.12-4.11-4.04-3.57-2.23-7.83-4.51-11.5-2.6-3.07,1.6-2.61,6.29-2.87,9.84-.02.26.02.53-.02.79-.5,3.79.64,5.4,4.94,5.07,7.03-.53,7.18-.22,7.16-7.16-.01-2.82.81-3.62,3.43-2.64.72.27,1.51.38,2.97.74h0ZM574.32,113.25c-14.77,5.74-28.04,13.87-39.6,24.73,15.33-4.85,28.14-13.72,39.6-24.73ZM322.34,239.63c1.46.11,2.92.24,4.38.32.77.04,1.79.2,1.8-.91,0-.45-.73-1.05-1.27-1.33-7.65-3.97-23.97-1.09-29.98,5.25-3.19,3.36-2.67,5.42,1.67,6.84,2.33.76,3.39-.91,4.62-2.27,5.02-5.57,11.15-8.51,18.77-7.9h.01ZM352.04,275.96c-.78.6-1.28.82-1.55,1.21-.9,1.31.38,1.91,1.03,2.6,14.64,15.42,29.3,30.83,43.99,46.2.68.71,1.39,2.51,2.77,1.03,1.07-1.15-.37-1.89-1.01-2.58-14.56-15.5-29.15-30.96-43.73-46.45-.54-.58-.95-1.28-1.5-2.02h0ZM556.53,161.27c.71-9.41-5.21-14.82-15.92-15.2-2.29-.08-3.18.52-2.91,2.82.15,1.31.17,2.66.06,3.98-.18,2.3.86,3,3.06,2.89,5.87-.28,11.32.89,15.71,5.51h0ZM444.5,291.4c3.21.07,4.93-3.26,7.75-1.27,1.82,1.28,3.62,3.96,5.51,3.4,1.96-.59,3.31-3.23,4.93-4.96.82-.87,1.61-1.77,2.47-2.6.94-.91,1.23-1.47-.2-2.36-6.06-3.77-11.65-3.05-16.33,2.37-1.37,1.59-2.56,3.35-4.13,5.43h0ZM330.74,427.91c-.44.18-.97.3-1.4.58-2.43,1.56-3.81,8.94-2.21,11.92,2.27,4.25,5.01.72,7.56.4.25-.03.49-.2.73-.32,6.81-3.24,7.58-1.71,1.44-8.1-1.73-1.8-3.45-3.72-6.11-4.49h-.01ZM342.55,468.94c-2.72-3.34-5.64-5.56-8.66-7.65-1.3-.9-2.58-.51-3.64.44-3.9,3.5-7.77,7.04-11.64,10.57,7.93-1.47,15.8-1.4,23.94-3.36h0ZM512.27,147.62c-6.62-1.93-17.86,3.92-19.85,10.42,4.48-.34,8.75.25,12.87,2.48.91-5.2,3.34-9.37,6.98-12.9ZM379.81,260.53c-4.89,3.24-8.96,7.18-12.39,11.77-.74.99-1.86,1.94-.71,3.46,2.03,2.68,4.39,4.94,7.32,6.6,1.22.69,2.11.74,1.88-1.02-1-7.35,1.12-14.09,3.9-20.81ZM393.22,414.81c-7.21,1.19-14.1,1.77-21.06.65-2.89-.47-2.22,2.34-2.74,3.91-.34,1.05-1,2.14.77,2.9,6.78,2.87,18.62-.71,23.02-7.46h.01ZM461.87,221.2c-.85-.98-1.64-2.02-2.55-2.93-6.65-6.69-10.59-6.22-15.31,1.96-.58,1-3.01,2.68-.21,3.71,2.6.95,6.25,3.86,8.04.54,2.65-4.91,5.67-4.6,10.02-3.27h0ZM302.51,270.58c1.5,9.19,6.21,14.14,13.67,16.77,4.97,1.75,4.87,1.72,7.19-3.09.83-1.71,1.05-2.58-1.22-2.78-7.7-.67-14.34-3.46-19.64-10.9ZM454.14,173.55c4.89-5.13,5.87-5.63,11.09-5.74,1.41-.03,3.04.46,3.53-1.58.48-2.02-.57-3.28-2.15-4.25-3.29-2.05-9.44-1.42-12.34,1.24-2.61,2.4-2.69,5.44-.13,10.34h0ZM237.33,243.04c-1.15,1.48-.76,2.24-.62,3,1.18,6.21,1.72,12.25-1.9,18.07-1.82,2.93,1.48,3.38,3.13,4.28,1.84,1.01,3.36.53,3.82-1.78.26-1.3.59-2.59.72-3.91.67-7.02-.59-13.52-5.15-19.66h0ZM614.25,188.99c6.34-.88,12.64-1.75,19-2.16,5.4-.35,5.75-.89,5.85-6.51.03-1.73-.23-2.53-2.17-1.9-7.97,2.58-15.63,5.85-22.69,10.57h.01ZM463.66,604.8c2.09-.1,2.84-1.32,3.84-2.05,4.97-3.63,10.3-6.65,16.02-8.88,3.53-1.38,2.57-4.4,1.92-6.37-.66-2.02-2.73-.08-3.94.41-8,3.22-12.89,9.72-17.83,16.9h-.01ZM495.16,107.18c-8.93-.4-17.5.12-23.38,7.97-.93,1.24-3.21,2.62-1.91,4.14,1.16,1.35,3.5.49,5.23-.25.6-.26,1.2-.62,1.64-1.09,5.06-5.41,10.98-9.33,18.41-10.76h0ZM534.14,492.02c-1.76-1.94-3.15-3.35-4.4-4.88-1.11-1.35-2.04-1.29-3.29-.16-5.06,4.55-8.04,10.33-10.2,16.7,5.63-4.23,10.5-9.39,17.89-11.67h0ZM336.12,383.5c-1.99,1.15-2.26,2.76-2.64,4.25-1.41,5.51-.84,11.02.16,16.52.27,1.47.55,3.33,2.55,2.52,1.66-.67,4.55-1.58,3.62-3.89-2.47-6.14-2.48-12.67-3.69-19.4h0ZM475.05,429.4c-1.66-2.74-3.44-5.51-5.04-8.38-1.22-2.19-2.57-2.78-4.73-1.21-1.99,1.45-3.02,2.87-1.03,5.14,1.91,2.18,3.64,4.51,5.48,6.76.65.8,1.29,1.82,2.59,1.02,1.25-.77,2.44-1.58,2.73-3.32h0ZM441.48,399.1c-.01,4.49.22,4.64,3.78,2.62,1.5-.85,2.91-1.97,4.52-2.52,2.93-1,3.72-3.29,2.94-5.66-.9-2.75-3.23-.58-4.74-.37-3.46.47-7.14,1.24-6.5,5.92h0ZM447.52,390.9c1.07-.28,3.26-.76,5.4-1.42,2.02-.62,2.16-2.48,2.35-4.19.14-1.25-.64-2.08-1.77-2.27-2.22-.36-4.53-.64-6.66.2-2.67,1.06-2.77,3.64-2.91,6-.09,1.61,1.1,1.9,3.58,1.67h.01ZM437.06,282.55c2.67-2.4,4.86-1.9,7.03.46.57.62,1.27,1.79,2.27,1.15,1.9-1.2,4.34-2.33,5.2-4.14.72-1.5-1.87-2.84-3.16-4.11-1.34-1.32-2.8-1.31-4.33-.26-2.72,1.88-5.04,4.15-7.01,6.89h0ZM436.2,539.62c-3.74-.44-7.22-1.29-10.66-1.12-2.53.13-3.38,3.09-3.55,5.13-.17,1.97,2.26,1.02,3.51,1.45,5.06,1.75,7.87-1.19,10.7-5.46h0ZM454.53,211.36c2.63,2.91,5.49,3.23,8.6.94,1.27-.94,2.44-.54,3.73-.14,1.14.35,2.01,1.81,3.5.93-3.97-7-9.42-7.57-15.83-1.73h0ZM478.59,481.5c3.38-2.91,5.7-5.95,5.48-10.29-.08-1.56-.46-3.46-2.66-3.16-1.78.24-4.2.76-4.12,2.94.11,3.34-.2,6.83,1.31,10.51h-.01ZM432.11,271.48c2.12.25,3.92.3,4.54,2.4.83,2.81,2.69,2.95,4.99,1.88,1.89-.88,3.18-2.17,2.19-4.37-.97-2.15-2.4-4.01-5.16-3.33-2.18.54-4.23,1.52-6.55,3.42h-.01ZM425.5,549.07c-2.77-.37-4.46-.61-6.16-.82-1.13-.14-2.12-.02-2.46,1.34-.58,2.3-1.16,4.6-1.78,6.89-.38,1.42.33,2.01,1.58,2.06.94.04,2.48.7,2.53-.91.12-3.9,2.66-6.09,6.29-8.56h0ZM539.94,104.86c1.58.14,2.9-.33,3.85-1.64.43-.6.54-1.46-.2-1.7-2.97-.95-5.78-2.92-9.13-1.81-.84.28-1.9.68-1.86,1.79.03.91,1.07,1.09,1.73,1.45,1.76.95,3.54,1.86,5.61,1.9h0ZM463.04,409.79c-1.79.27-4.46-.96-4.21,2.51.12,1.65-.11,3.68,2.26,4.05,1.48.23,6.22-3.42,6.04-4.69-.37-2.63-2.6-1.54-4.09-1.87h0ZM467.65,463.27c2.06,1.46,3.46,2.4,4.81,3.42,1.9,1.43,2.83-.43,4.03-1.19.72-.46,2-.93,1.69-1.89-.47-1.45-2.15-1.32-3.38-1.57-2.23-.46-4.33.14-7.16,1.23h.01ZM343.98,410.2c-.98-1.35-1.43-3.61-3.11-3.29-1.77.33-3.88,1.72-3.76,3.89.07,1.25.96,3.51,2.77,3.24,1.91-.29,3.19-2.04,4.11-3.84h0ZM293.26,282.29c-.42-.54.52-2.76-1.68-1.75-1.91.87-3.81,2.11-4.82,4.04-.55,1.05-1,2.8,1.15,2.99,2.04.18,5.32-3.01,5.36-5.28h0ZM374.97,69.25c3.8.05,6.63.35,9.37-.61-2.87-1.16-5.74-2.59-9.37.61ZM348.41,106.64c-3.63-1.51-6.51-2-9.97,1.06,3.89.45,6.72.71,9.97-1.06Z"/></svg>